<mxfile host="Electron" modified="2023-09-12T06:24:25.558Z" agent="Mozilla/5.0 (Windows NT 10.0; Win64; x64) AppleWebKit/537.36 (KHTML, like Gecko) draw.io/21.2.8 Chrome/112.0.5615.165 Electron/24.2.0 Safari/537.36" etag="9J3uFvmLZDG7jOkazyQ5" version="21.2.8" type="device" pages="2">
  <diagram name="State Machine Diagram" id="Zy5miJtwsmo2a1Sr_mXt">
    <mxGraphModel dx="1050" dy="669" grid="1" gridSize="10" guides="1" tooltips="1" connect="1" arrows="1" fold="1" page="1" pageScale="1" pageWidth="850" pageHeight="1100" math="0" shadow="0">
      <root>
        <mxCell id="0" />
        <mxCell id="1" parent="0" />
        <mxCell id="f_33hYLXg027ikjfP-OH-52" value="" style="group;" vertex="1" connectable="0" parent="1">
          <mxGeometry x="220" y="30" width="340" height="660" as="geometry" />
        </mxCell>
        <mxCell id="f_33hYLXg027ikjfP-OH-50" value="" style="rounded=1;whiteSpace=wrap;html=1;fillColor=#f8cecc;strokeColor=#b85450;" vertex="1" parent="f_33hYLXg027ikjfP-OH-52">
          <mxGeometry width="340" height="580" as="geometry" />
        </mxCell>
        <mxCell id="f_33hYLXg027ikjfP-OH-51" value="Reaction 2 -&lt;br&gt;Sending Orders to ABS" style="text;html=1;strokeColor=#666666;fillColor=#f5f5f5;align=center;verticalAlign=middle;whiteSpace=wrap;rounded=0;fontColor=#333333;" vertex="1" parent="f_33hYLXg027ikjfP-OH-52">
          <mxGeometry x="95" y="10" width="150" height="30" as="geometry" />
        </mxCell>
        <mxCell id="f_33hYLXg027ikjfP-OH-43" value="" style="rounded=0;whiteSpace=wrap;html=1;fillColor=#ffe6cc;strokeColor=#d79b00;" vertex="1" parent="f_33hYLXg027ikjfP-OH-52">
          <mxGeometry x="20" y="150" width="300" height="410" as="geometry" />
        </mxCell>
        <mxCell id="f_33hYLXg027ikjfP-OH-19" value="Wait for Global Buffer initialisation" style="ellipse;whiteSpace=wrap;html=1;" vertex="1" parent="f_33hYLXg027ikjfP-OH-52">
          <mxGeometry x="50" y="50" width="120" height="80" as="geometry" />
        </mxCell>
        <mxCell id="f_33hYLXg027ikjfP-OH-20" value="Wait for ABS Plant to be Ready" style="ellipse;whiteSpace=wrap;html=1;" vertex="1" parent="f_33hYLXg027ikjfP-OH-52">
          <mxGeometry x="50" y="160" width="120" height="80" as="geometry" />
        </mxCell>
        <mxCell id="f_33hYLXg027ikjfP-OH-49" style="edgeStyle=orthogonalEdgeStyle;rounded=0;orthogonalLoop=1;jettySize=auto;html=1;" edge="1" parent="f_33hYLXg027ikjfP-OH-52" source="f_33hYLXg027ikjfP-OH-19" target="f_33hYLXg027ikjfP-OH-20">
          <mxGeometry relative="1" as="geometry" />
        </mxCell>
        <mxCell id="f_33hYLXg027ikjfP-OH-21" value="Read Global Buffer into Temp Buffer" style="rounded=0;whiteSpace=wrap;html=1;" vertex="1" parent="f_33hYLXg027ikjfP-OH-52">
          <mxGeometry x="50" y="260" width="120" height="60" as="geometry" />
        </mxCell>
        <mxCell id="f_33hYLXg027ikjfP-OH-22" style="edgeStyle=orthogonalEdgeStyle;rounded=0;orthogonalLoop=1;jettySize=auto;html=1;" edge="1" parent="f_33hYLXg027ikjfP-OH-52" source="f_33hYLXg027ikjfP-OH-20" target="f_33hYLXg027ikjfP-OH-21">
          <mxGeometry relative="1" as="geometry" />
        </mxCell>
        <mxCell id="f_33hYLXg027ikjfP-OH-23" value="Buffer Empty?&lt;br&gt;&lt;br&gt;&amp;nbsp;" style="ellipse;whiteSpace=wrap;html=1;" vertex="1" parent="f_33hYLXg027ikjfP-OH-52">
          <mxGeometry x="50" y="340" width="120" height="80" as="geometry" />
        </mxCell>
        <mxCell id="f_33hYLXg027ikjfP-OH-24" style="edgeStyle=orthogonalEdgeStyle;rounded=0;orthogonalLoop=1;jettySize=auto;html=1;" edge="1" parent="f_33hYLXg027ikjfP-OH-52" source="f_33hYLXg027ikjfP-OH-21" target="f_33hYLXg027ikjfP-OH-23">
          <mxGeometry relative="1" as="geometry" />
        </mxCell>
        <mxCell id="f_33hYLXg027ikjfP-OH-31" value="Yes" style="text;html=1;strokeColor=none;fillColor=none;align=center;verticalAlign=middle;whiteSpace=wrap;rounded=0;" vertex="1" parent="f_33hYLXg027ikjfP-OH-52">
          <mxGeometry x="127" y="365" width="60" height="30" as="geometry" />
        </mxCell>
        <mxCell id="f_33hYLXg027ikjfP-OH-33" style="edgeStyle=orthogonalEdgeStyle;rounded=0;orthogonalLoop=1;jettySize=auto;html=1;" edge="1" parent="f_33hYLXg027ikjfP-OH-52" source="f_33hYLXg027ikjfP-OH-32" target="f_33hYLXg027ikjfP-OH-21">
          <mxGeometry relative="1" as="geometry" />
        </mxCell>
        <mxCell id="f_33hYLXg027ikjfP-OH-32" value="Wait for Global Buffer to be updated" style="ellipse;whiteSpace=wrap;html=1;" vertex="1" parent="f_33hYLXg027ikjfP-OH-52">
          <mxGeometry x="190" y="250" width="120" height="80" as="geometry" />
        </mxCell>
        <mxCell id="f_33hYLXg027ikjfP-OH-30" style="edgeStyle=orthogonalEdgeStyle;rounded=0;orthogonalLoop=1;jettySize=auto;html=1;" edge="1" parent="f_33hYLXg027ikjfP-OH-52" source="f_33hYLXg027ikjfP-OH-23" target="f_33hYLXg027ikjfP-OH-32">
          <mxGeometry relative="1" as="geometry">
            <mxPoint x="230" y="320" as="targetPoint" />
          </mxGeometry>
        </mxCell>
        <mxCell id="f_33hYLXg027ikjfP-OH-34" value="Pop order from buffer&lt;br&gt;&lt;br&gt;Emit order to ABS&lt;br&gt;&lt;br&gt;Update Global Buffer" style="rounded=0;whiteSpace=wrap;html=1;" vertex="1" parent="f_33hYLXg027ikjfP-OH-52">
          <mxGeometry x="50" y="440" width="120" height="90" as="geometry" />
        </mxCell>
        <mxCell id="f_33hYLXg027ikjfP-OH-35" style="edgeStyle=orthogonalEdgeStyle;rounded=0;orthogonalLoop=1;jettySize=auto;html=1;" edge="1" parent="f_33hYLXg027ikjfP-OH-52" source="f_33hYLXg027ikjfP-OH-23" target="f_33hYLXg027ikjfP-OH-34">
          <mxGeometry relative="1" as="geometry" />
        </mxCell>
        <mxCell id="f_33hYLXg027ikjfP-OH-36" value="No" style="text;html=1;strokeColor=none;fillColor=none;align=center;verticalAlign=middle;whiteSpace=wrap;rounded=0;" vertex="1" parent="f_33hYLXg027ikjfP-OH-52">
          <mxGeometry x="80" y="395" width="60" height="30" as="geometry" />
        </mxCell>
        <mxCell id="f_33hYLXg027ikjfP-OH-40" style="edgeStyle=orthogonalEdgeStyle;rounded=0;orthogonalLoop=1;jettySize=auto;html=1;entryX=0;entryY=0.5;entryDx=0;entryDy=0;" edge="1" parent="f_33hYLXg027ikjfP-OH-52" source="f_33hYLXg027ikjfP-OH-34" target="f_33hYLXg027ikjfP-OH-20">
          <mxGeometry relative="1" as="geometry">
            <mxPoint x="110" y="550" as="targetPoint" />
            <Array as="points">
              <mxPoint x="110" y="550" />
              <mxPoint x="30" y="550" />
              <mxPoint x="30" y="200" />
            </Array>
          </mxGeometry>
        </mxCell>
        <mxCell id="f_33hYLXg027ikjfP-OH-44" value="&lt;b&gt;Trapping ABS FAULT&lt;/b&gt;" style="rounded=0;whiteSpace=wrap;html=1;fillColor=#ffe6cc;strokeColor=#d79b00;" vertex="1" parent="f_33hYLXg027ikjfP-OH-52">
          <mxGeometry x="170" y="120" width="150" height="30" as="geometry" />
        </mxCell>
        <mxCell id="f_33hYLXg027ikjfP-OH-47" style="edgeStyle=orthogonalEdgeStyle;rounded=0;orthogonalLoop=1;jettySize=auto;html=1;" edge="1" parent="f_33hYLXg027ikjfP-OH-52" source="f_33hYLXg027ikjfP-OH-46" target="f_33hYLXg027ikjfP-OH-20">
          <mxGeometry relative="1" as="geometry" />
        </mxCell>
        <mxCell id="f_33hYLXg027ikjfP-OH-46" value="FAULT OCCURED" style="shape=process;whiteSpace=wrap;html=1;backgroundOutline=1;fillColor=#ffcc99;strokeColor=#36393d;" vertex="1" parent="f_33hYLXg027ikjfP-OH-52">
          <mxGeometry x="201.5" y="180" width="97" height="40" as="geometry" />
        </mxCell>
        <mxCell id="f_33hYLXg027ikjfP-OH-53" value="" style="group" vertex="1" connectable="0" parent="1">
          <mxGeometry x="20" y="420" width="180" height="290" as="geometry" />
        </mxCell>
        <mxCell id="f_33hYLXg027ikjfP-OH-16" value="" style="rounded=1;whiteSpace=wrap;html=1;fillColor=#dae8fc;strokeColor=#6c8ebf;" vertex="1" parent="f_33hYLXg027ikjfP-OH-53">
          <mxGeometry width="180" height="290" as="geometry" />
        </mxCell>
        <mxCell id="f_33hYLXg027ikjfP-OH-11" value="Create Buffer" style="rounded=0;whiteSpace=wrap;html=1;" vertex="1" parent="f_33hYLXg027ikjfP-OH-53">
          <mxGeometry x="30" y="50" width="120" height="60" as="geometry" />
        </mxCell>
        <mxCell id="f_33hYLXg027ikjfP-OH-12" value="Emit buffer as signal" style="rounded=0;whiteSpace=wrap;html=1;" vertex="1" parent="f_33hYLXg027ikjfP-OH-53">
          <mxGeometry x="30" y="130" width="120" height="60" as="geometry" />
        </mxCell>
        <mxCell id="f_33hYLXg027ikjfP-OH-13" style="edgeStyle=orthogonalEdgeStyle;rounded=0;orthogonalLoop=1;jettySize=auto;html=1;" edge="1" parent="f_33hYLXg027ikjfP-OH-53" source="f_33hYLXg027ikjfP-OH-11" target="f_33hYLXg027ikjfP-OH-12">
          <mxGeometry relative="1" as="geometry" />
        </mxCell>
        <mxCell id="f_33hYLXg027ikjfP-OH-14" value="Halt" style="rounded=0;whiteSpace=wrap;html=1;" vertex="1" parent="f_33hYLXg027ikjfP-OH-53">
          <mxGeometry x="30" y="210" width="120" height="60" as="geometry" />
        </mxCell>
        <mxCell id="f_33hYLXg027ikjfP-OH-15" style="edgeStyle=orthogonalEdgeStyle;rounded=0;orthogonalLoop=1;jettySize=auto;html=1;" edge="1" parent="f_33hYLXg027ikjfP-OH-53" source="f_33hYLXg027ikjfP-OH-12" target="f_33hYLXg027ikjfP-OH-14">
          <mxGeometry relative="1" as="geometry" />
        </mxCell>
        <mxCell id="f_33hYLXg027ikjfP-OH-17" value="Reaction 3 -&lt;br&gt;Buffer Creator" style="text;html=1;strokeColor=#666666;fillColor=#f5f5f5;align=center;verticalAlign=middle;whiteSpace=wrap;rounded=0;fontColor=#333333;" vertex="1" parent="f_33hYLXg027ikjfP-OH-53">
          <mxGeometry x="15" y="10" width="150" height="30" as="geometry" />
        </mxCell>
        <mxCell id="f_33hYLXg027ikjfP-OH-54" value="" style="group;" vertex="1" connectable="0" parent="1">
          <mxGeometry x="20" y="30" width="180" height="370" as="geometry" />
        </mxCell>
        <mxCell id="f_33hYLXg027ikjfP-OH-8" value="" style="rounded=1;whiteSpace=wrap;html=1;fillColor=#d5e8d4;strokeColor=#82b366;" vertex="1" parent="f_33hYLXg027ikjfP-OH-54">
          <mxGeometry width="180" height="370" as="geometry" />
        </mxCell>
        <mxCell id="f_33hYLXg027ikjfP-OH-2" value="Wait for Global Buffer initialisation" style="ellipse;whiteSpace=wrap;html=1;" vertex="1" parent="f_33hYLXg027ikjfP-OH-54">
          <mxGeometry x="20" y="50" width="120" height="80" as="geometry" />
        </mxCell>
        <mxCell id="f_33hYLXg027ikjfP-OH-3" value="Wait for new order" style="ellipse;whiteSpace=wrap;html=1;" vertex="1" parent="f_33hYLXg027ikjfP-OH-54">
          <mxGeometry x="20" y="150" width="120" height="80" as="geometry" />
        </mxCell>
        <mxCell id="f_33hYLXg027ikjfP-OH-4" style="edgeStyle=orthogonalEdgeStyle;rounded=0;orthogonalLoop=1;jettySize=auto;html=1;" edge="1" parent="f_33hYLXg027ikjfP-OH-54" source="f_33hYLXg027ikjfP-OH-2" target="f_33hYLXg027ikjfP-OH-3">
          <mxGeometry relative="1" as="geometry" />
        </mxCell>
        <mxCell id="f_33hYLXg027ikjfP-OH-7" style="edgeStyle=orthogonalEdgeStyle;rounded=0;orthogonalLoop=1;jettySize=auto;html=1;entryX=1;entryY=0.5;entryDx=0;entryDy=0;" edge="1" parent="f_33hYLXg027ikjfP-OH-54" source="f_33hYLXg027ikjfP-OH-5" target="f_33hYLXg027ikjfP-OH-2">
          <mxGeometry relative="1" as="geometry">
            <Array as="points">
              <mxPoint x="160" y="300" />
              <mxPoint x="160" y="90" />
            </Array>
          </mxGeometry>
        </mxCell>
        <mxCell id="f_33hYLXg027ikjfP-OH-5" value="Read new order&lt;br&gt;&lt;br&gt;Add new order to temp buffer&lt;br&gt;&lt;br&gt;Update global buffer" style="rounded=0;whiteSpace=wrap;html=1;" vertex="1" parent="f_33hYLXg027ikjfP-OH-54">
          <mxGeometry x="20" y="250" width="120" height="100" as="geometry" />
        </mxCell>
        <mxCell id="f_33hYLXg027ikjfP-OH-6" style="edgeStyle=orthogonalEdgeStyle;rounded=0;orthogonalLoop=1;jettySize=auto;html=1;" edge="1" parent="f_33hYLXg027ikjfP-OH-54" source="f_33hYLXg027ikjfP-OH-3" target="f_33hYLXg027ikjfP-OH-5">
          <mxGeometry relative="1" as="geometry" />
        </mxCell>
        <mxCell id="f_33hYLXg027ikjfP-OH-10" value="Reaction 1 -&lt;br&gt;Receiving Orders from GUI" style="text;html=1;strokeColor=#666666;fillColor=#f5f5f5;align=center;verticalAlign=middle;whiteSpace=wrap;rounded=0;fontColor=#333333;" vertex="1" parent="f_33hYLXg027ikjfP-OH-54">
          <mxGeometry x="15" y="10" width="150" height="30" as="geometry" />
        </mxCell>
      </root>
    </mxGraphModel>
  </diagram>
  <diagram id="N6PrCQ5gOJkAkT0Y4KjF" name="Page-2">
    <mxGraphModel dx="1050" dy="669" grid="1" gridSize="10" guides="1" tooltips="1" connect="1" arrows="1" fold="1" page="1" pageScale="1" pageWidth="850" pageHeight="1100" math="0" shadow="0">
      <root>
        <mxCell id="0" />
        <mxCell id="1" parent="0" />
        <mxCell id="onEMkbkjmM9F2GEW2ev1-4" value="&amp;nbsp;incomingOrder&amp;nbsp;" style="edgeStyle=orthogonalEdgeStyle;rounded=0;orthogonalLoop=1;jettySize=auto;html=1;labelBorderColor=default;fontSize=16;" edge="1" parent="1" source="onEMkbkjmM9F2GEW2ev1-1" target="onEMkbkjmM9F2GEW2ev1-2">
          <mxGeometry relative="1" as="geometry" />
        </mxCell>
        <mxCell id="onEMkbkjmM9F2GEW2ev1-1" value="&lt;font style=&quot;font-size: 24px;&quot;&gt;POS GUI&lt;/font&gt;" style="shape=process;whiteSpace=wrap;html=1;backgroundOutline=1;" vertex="1" parent="1">
          <mxGeometry x="60" y="40" width="240" height="160" as="geometry" />
        </mxCell>
        <mxCell id="onEMkbkjmM9F2GEW2ev1-7" value="&amp;nbsp;outgoingOrder&amp;nbsp;" style="edgeStyle=orthogonalEdgeStyle;rounded=0;orthogonalLoop=1;jettySize=auto;html=1;exitX=1;exitY=0.75;exitDx=0;exitDy=0;entryX=0;entryY=0.75;entryDx=0;entryDy=0;labelBorderColor=default;fontSize=16;" edge="1" parent="1" source="onEMkbkjmM9F2GEW2ev1-2" target="onEMkbkjmM9F2GEW2ev1-3">
          <mxGeometry relative="1" as="geometry" />
        </mxCell>
        <mxCell id="onEMkbkjmM9F2GEW2ev1-2" value="&lt;font style=&quot;font-size: 24px;&quot;&gt;POS&lt;br&gt;Sub-System&lt;/font&gt;" style="shape=process;whiteSpace=wrap;html=1;backgroundOutline=1;" vertex="1" parent="1">
          <mxGeometry x="60" y="320" width="240" height="160" as="geometry" />
        </mxCell>
        <mxCell id="onEMkbkjmM9F2GEW2ev1-5" value="&amp;nbsp;absReady&amp;nbsp;" style="edgeStyle=orthogonalEdgeStyle;rounded=0;orthogonalLoop=1;jettySize=auto;html=1;exitX=0;exitY=0.25;exitDx=0;exitDy=0;entryX=1;entryY=0.25;entryDx=0;entryDy=0;labelBorderColor=default;fontSize=16;" edge="1" parent="1" source="onEMkbkjmM9F2GEW2ev1-3" target="onEMkbkjmM9F2GEW2ev1-2">
          <mxGeometry relative="1" as="geometry" />
        </mxCell>
        <mxCell id="onEMkbkjmM9F2GEW2ev1-6" value="&amp;nbsp;absFault&amp;nbsp;" style="edgeStyle=orthogonalEdgeStyle;rounded=0;orthogonalLoop=1;jettySize=auto;html=1;exitX=0;exitY=0.5;exitDx=0;exitDy=0;entryX=1;entryY=0.5;entryDx=0;entryDy=0;fontSize=16;labelBorderColor=default;" edge="1" parent="1" source="onEMkbkjmM9F2GEW2ev1-3" target="onEMkbkjmM9F2GEW2ev1-2">
          <mxGeometry relative="1" as="geometry" />
        </mxCell>
        <mxCell id="onEMkbkjmM9F2GEW2ev1-3" value="&lt;font style=&quot;font-size: 24px;&quot;&gt;ABS&lt;br&gt;Sub-System&lt;br&gt;&lt;/font&gt;" style="shape=process;whiteSpace=wrap;html=1;backgroundOutline=1;" vertex="1" parent="1">
          <mxGeometry x="440" y="320" width="240" height="160" as="geometry" />
        </mxCell>
        <mxCell id="onEMkbkjmM9F2GEW2ev1-9" value="incomingOrder" style="swimlane;fontStyle=0;childLayout=stackLayout;horizontal=1;startSize=30;horizontalStack=0;resizeParent=1;resizeParentMax=0;resizeLast=0;collapsible=1;marginBottom=0;whiteSpace=wrap;html=1;fontSize=14;" vertex="1" parent="1">
          <mxGeometry x="380" y="40" width="140" height="110" as="geometry" />
        </mxCell>
        <mxCell id="onEMkbkjmM9F2GEW2ev1-10" value="String" style="text;strokeColor=none;fillColor=none;align=left;verticalAlign=middle;spacingLeft=4;spacingRight=4;overflow=hidden;points=[[0,0.5],[1,0.5]];portConstraint=eastwest;rotatable=0;whiteSpace=wrap;html=1;" vertex="1" parent="onEMkbkjmM9F2GEW2ev1-9">
          <mxGeometry y="30" width="140" height="20" as="geometry" />
        </mxCell>
        <mxCell id="onEMkbkjmM9F2GEW2ev1-11" value="sent for 100ms" style="text;strokeColor=none;fillColor=none;align=left;verticalAlign=middle;spacingLeft=4;spacingRight=4;overflow=hidden;points=[[0,0.5],[1,0.5]];portConstraint=eastwest;rotatable=0;whiteSpace=wrap;html=1;" vertex="1" parent="onEMkbkjmM9F2GEW2ev1-9">
          <mxGeometry y="50" width="140" height="20" as="geometry" />
        </mxCell>
        <mxCell id="onEMkbkjmM9F2GEW2ev1-12" value="order details delimited by commas" style="text;strokeColor=none;fillColor=none;align=left;verticalAlign=middle;spacingLeft=4;spacingRight=4;overflow=hidden;points=[[0,0.5],[1,0.5]];portConstraint=eastwest;rotatable=0;whiteSpace=wrap;html=1;" vertex="1" parent="onEMkbkjmM9F2GEW2ev1-9">
          <mxGeometry y="70" width="140" height="40" as="geometry" />
        </mxCell>
        <mxCell id="onEMkbkjmM9F2GEW2ev1-13" value="absReady" style="swimlane;fontStyle=0;childLayout=stackLayout;horizontal=1;startSize=30;horizontalStack=0;resizeParent=1;resizeParentMax=0;resizeLast=0;collapsible=1;marginBottom=0;whiteSpace=wrap;html=1;fontSize=14;" vertex="1" parent="1">
          <mxGeometry x="540" y="40" width="140" height="130" as="geometry" />
        </mxCell>
        <mxCell id="onEMkbkjmM9F2GEW2ev1-14" value="Pure" style="text;strokeColor=none;fillColor=none;align=left;verticalAlign=middle;spacingLeft=4;spacingRight=4;overflow=hidden;points=[[0,0.5],[1,0.5]];portConstraint=eastwest;rotatable=0;whiteSpace=wrap;html=1;" vertex="1" parent="onEMkbkjmM9F2GEW2ev1-13">
          <mxGeometry y="30" width="140" height="20" as="geometry" />
        </mxCell>
        <mxCell id="onEMkbkjmM9F2GEW2ev1-15" value="emitted" style="text;strokeColor=none;fillColor=none;align=left;verticalAlign=middle;spacingLeft=4;spacingRight=4;overflow=hidden;points=[[0,0.5],[1,0.5]];portConstraint=eastwest;rotatable=0;whiteSpace=wrap;html=1;" vertex="1" parent="onEMkbkjmM9F2GEW2ev1-13">
          <mxGeometry y="50" width="140" height="20" as="geometry" />
        </mxCell>
        <mxCell id="onEMkbkjmM9F2GEW2ev1-16" value="signifies that the ABS is ready to produce another order" style="text;strokeColor=none;fillColor=none;align=left;verticalAlign=middle;spacingLeft=4;spacingRight=4;overflow=hidden;points=[[0,0.5],[1,0.5]];portConstraint=eastwest;rotatable=0;whiteSpace=wrap;html=1;" vertex="1" parent="onEMkbkjmM9F2GEW2ev1-13">
          <mxGeometry y="70" width="140" height="60" as="geometry" />
        </mxCell>
        <mxCell id="onEMkbkjmM9F2GEW2ev1-17" value="absFault" style="swimlane;fontStyle=0;childLayout=stackLayout;horizontal=1;startSize=30;horizontalStack=0;resizeParent=1;resizeParentMax=0;resizeLast=0;collapsible=1;marginBottom=0;whiteSpace=wrap;html=1;fontSize=14;" vertex="1" parent="1">
          <mxGeometry x="380" y="170" width="140" height="130" as="geometry" />
        </mxCell>
        <mxCell id="onEMkbkjmM9F2GEW2ev1-18" value="Pure" style="text;strokeColor=none;fillColor=none;align=left;verticalAlign=middle;spacingLeft=4;spacingRight=4;overflow=hidden;points=[[0,0.5],[1,0.5]];portConstraint=eastwest;rotatable=0;whiteSpace=wrap;html=1;" vertex="1" parent="onEMkbkjmM9F2GEW2ev1-17">
          <mxGeometry y="30" width="140" height="20" as="geometry" />
        </mxCell>
        <mxCell id="onEMkbkjmM9F2GEW2ev1-19" value="emitted" style="text;strokeColor=none;fillColor=none;align=left;verticalAlign=middle;spacingLeft=4;spacingRight=4;overflow=hidden;points=[[0,0.5],[1,0.5]];portConstraint=eastwest;rotatable=0;whiteSpace=wrap;html=1;" vertex="1" parent="onEMkbkjmM9F2GEW2ev1-17">
          <mxGeometry y="50" width="140" height="20" as="geometry" />
        </mxCell>
        <mxCell id="onEMkbkjmM9F2GEW2ev1-20" value="signifies that the ABS has encountered a fault and is no longer ready" style="text;strokeColor=none;fillColor=none;align=left;verticalAlign=middle;spacingLeft=4;spacingRight=4;overflow=hidden;points=[[0,0.5],[1,0.5]];portConstraint=eastwest;rotatable=0;whiteSpace=wrap;html=1;" vertex="1" parent="onEMkbkjmM9F2GEW2ev1-17">
          <mxGeometry y="70" width="140" height="60" as="geometry" />
        </mxCell>
        <mxCell id="onEMkbkjmM9F2GEW2ev1-21" value="outgoingOrder" style="swimlane;fontStyle=0;childLayout=stackLayout;horizontal=1;startSize=30;horizontalStack=0;resizeParent=1;resizeParentMax=0;resizeLast=0;collapsible=1;marginBottom=0;whiteSpace=wrap;html=1;fontSize=14;" vertex="1" parent="1">
          <mxGeometry x="540" y="190" width="140" height="110" as="geometry" />
        </mxCell>
        <mxCell id="onEMkbkjmM9F2GEW2ev1-22" value="String" style="text;strokeColor=none;fillColor=none;align=left;verticalAlign=middle;spacingLeft=4;spacingRight=4;overflow=hidden;points=[[0,0.5],[1,0.5]];portConstraint=eastwest;rotatable=0;whiteSpace=wrap;html=1;" vertex="1" parent="onEMkbkjmM9F2GEW2ev1-21">
          <mxGeometry y="30" width="140" height="20" as="geometry" />
        </mxCell>
        <mxCell id="onEMkbkjmM9F2GEW2ev1-23" value="emitted" style="text;strokeColor=none;fillColor=none;align=left;verticalAlign=middle;spacingLeft=4;spacingRight=4;overflow=hidden;points=[[0,0.5],[1,0.5]];portConstraint=eastwest;rotatable=0;whiteSpace=wrap;html=1;" vertex="1" parent="onEMkbkjmM9F2GEW2ev1-21">
          <mxGeometry y="50" width="140" height="20" as="geometry" />
        </mxCell>
        <mxCell id="onEMkbkjmM9F2GEW2ev1-24" value="order details delimited by commas" style="text;strokeColor=none;fillColor=none;align=left;verticalAlign=middle;spacingLeft=4;spacingRight=4;overflow=hidden;points=[[0,0.5],[1,0.5]];portConstraint=eastwest;rotatable=0;whiteSpace=wrap;html=1;" vertex="1" parent="onEMkbkjmM9F2GEW2ev1-21">
          <mxGeometry y="70" width="140" height="40" as="geometry" />
        </mxCell>
      </root>
    </mxGraphModel>
  </diagram>
</mxfile>
